HIERARCHY
ROOT Hips
{
	OFFSET	0.00	0.00	0.00
	CHANNELS 6 Xposition Yposition Zposition Zrotation Xrotation Yrotation
	JOINT LeftUpLeg
	{
		OFFSET	 0.126116	-0.014019	-0.065224
		CHANNELS 3 Zrotation Xrotation Yrotation
		JOINT LeftLeg
		{
			OFFSET	 0.000000	 0.000000	 0.569914
			CHANNELS 3 Zrotation Xrotation Yrotation
			JOINT LeftFoot
			{
				OFFSET	 0.000000	 0.000000	 0.544423
				CHANNELS 3 Zrotation Xrotation Yrotation
				JOINT LeftToeBase
				{
					OFFSET	 0.000000	 0.000000	 0.207117
					CHANNELS 3 Zrotation Xrotation Yrotation
					End Site
					{
						OFFSET	 0.000000	 0.000000	 0.207117
					}
				}
			}
		}
	}
	JOINT RightUpLeg
	{
		OFFSET	-0.124023	-0.008373	-0.065224
		CHANNELS 3 Zrotation Xrotation Yrotation
		JOINT RightLeg
		{
			OFFSET	 0.000000	 0.000000	 0.570047
			CHANNELS 3 Zrotation Xrotation Yrotation
			JOINT RightFoot
			{
				OFFSET	 0.000000	 0.000000	 0.544354
				CHANNELS 3 Zrotation Xrotation Yrotation
				JOINT RightToeBase
				{
					OFFSET	 0.000000	 0.000000	 0.207540
					CHANNELS 3 Zrotation Xrotation Yrotation
					End Site
					{
						OFFSET	 0.000000	 0.000000	 0.207540
					}
				}
			}
		}
	}
	JOINT Spine
	{
		OFFSET	 0.000184	-0.007763	 0.117403
		CHANNELS 3 Zrotation Xrotation Yrotation
		JOINT Spine1
		{
			OFFSET	 0.000000	 0.000000	 0.137269
			CHANNELS 3 Zrotation Xrotation Yrotation
			JOINT Spine2
			{
				OFFSET	 0.000000	 0.000000	 0.156879
				CHANNELS 3 Zrotation Xrotation Yrotation
				JOINT LeftShoulder
				{
					OFFSET	 0.080501	-0.002496	 0.160144
					CHANNELS 3 Zrotation Xrotation Yrotation
					JOINT LeftArm
					{
						OFFSET	 0.000000	 0.000000	 0.164363
						CHANNELS 3 Zrotation Xrotation Yrotation
						JOINT LeftForeArm
						{
							OFFSET	 0.000000	 0.000000	 0.364576
							CHANNELS 3 Zrotation Xrotation Yrotation
							JOINT LeftHand
							{
								OFFSET	 0.000000	 0.000000	 0.360812
								CHANNELS 3 Zrotation Xrotation Yrotation
								JOINT LeftHandIndex1
								{
									OFFSET	 0.000000	 0.000000	 0.086006
									CHANNELS 3 Zrotation Xrotation Yrotation
									JOINT LeftHandIndex2
									{
										OFFSET	 0.000000	 0.000000	 0.047236
										CHANNELS 3 Zrotation Xrotation Yrotation
										JOINT LeftHandIndex3
										{
											OFFSET	-0.004284	-0.000551	 0.038166
											CHANNELS 3 Zrotation Xrotation Yrotation
											End Site
											{
												OFFSET	-0.004284	-0.000551	 0.038166
											}
										}
									}
								}
							}
						}
					}
				}
				JOINT Neck
				{
					OFFSET	 0.000000	 0.000000	 0.176489
					CHANNELS 3 Zrotation Xrotation Yrotation
					JOINT Head
					{
						OFFSET	 0.000000	-0.001747	 0.077940
						CHANNELS 3 Zrotation Xrotation Yrotation
						End Site
						{
							OFFSET	 0.000000	-0.001747	 0.077940
						}
					}
				}
				JOINT RightShoulder
				{
					OFFSET	-0.080363	 0.000306	 0.159706
					CHANNELS 3 Zrotation Xrotation Yrotation
					JOINT RightArm
					{
						OFFSET	 0.000000	 0.000000	 0.164196
						CHANNELS 3 Zrotation Xrotation Yrotation
						JOINT RightForeArm
						{
							OFFSET	 0.000000	 0.000000	 0.365611
							CHANNELS 3 Zrotation Xrotation Yrotation
							JOINT RightHand
							{
								OFFSET	 0.000000	 0.000000	 0.360648
								CHANNELS 3 Zrotation Xrotation Yrotation
								JOINT RightHandIndex1
								{
									OFFSET	 0.000000	 0.000000	 0.069977
									CHANNELS 3 Zrotation Xrotation Yrotation
									JOINT RightHandIndex2
									{
										OFFSET	 0.000000	 0.000000	 0.052305
										CHANNELS 3 Zrotation Xrotation Yrotation
										JOINT RightHandIndex3
										{
											OFFSET	 0.009002	-0.000782	 0.042196
											CHANNELS 3 Zrotation Xrotation Yrotation
											End Site
											{
												OFFSET	 0.009002	-0.000782	 0.042196
											}
										}
									}
								}
							}
						}
					}
				}
			}
		}
	}
}
MOTION
Frames:    10
Frame Time: 0.03333334
-2.702489	-13.090500	 0.396824	-26.730660	 8.036318	 1.697064	 4.521006	-21.978310	 174.162000	-1.634454	-40.017960	-0.192412	 0.043301	 84.651180	-0.509121	-2.385707	 28.480300	-0.000593	-2.502402	-22.851030	-178.748900	-0.113413	-40.959070	-0.005568	-0.174664	 85.586470	 0.410956	 2.407691	 17.362710	-0.224986	-1.901724	 9.138317	-0.256382	-2.609040	 7.142277	-2.258962	-2.900321	 4.693737	-0.073133	-116.082500	 89.410500	-153.159500	 56.855200	 60.256950	-79.091960	-3.858513	-4.435398	-20.765900	 7.135368	 2.050195	-5.334832	-3.812334	 37.924440	-2.927599	-2.450526	 36.184240	 0.754587	-1.378229	 35.397820	-2.634230	 0.460373	 2.703408	-0.634759	-0.180467	 7.617200	-0.012837	 94.698890	 86.910220	 171.618800	-54.300880	 70.677070	 72.306980	-3.240262	-13.190850	 25.850220	-25.136790	 1.021987	 9.570326	 6.437017	 35.671460	-0.771858	 2.830251	 35.756010	-7.813440	-2.350882	 35.473990	 5.254307
-2.701701	-13.089970	 0.401990	-26.742840	 8.046604	 1.739249	 4.533405	-22.148170	 174.165200	-1.681169	-40.212540	-0.217335	 0.137434	 84.699140	-0.631214	-2.385743	 28.471950	-0.000416	-2.466627	-23.035170	-178.760400	-0.116176	-41.055980	 0.014726	-0.292313	 85.613670	 0.554165	 2.407686	 17.471150	-0.222872	-1.909712	 9.155661	-0.295735	-2.617241	 7.057043	-2.273247	-2.903916	 4.605311	-0.075471	-115.681200	 89.396720	-153.539200	 56.022580	 59.760680	-78.123510	-3.651101	-4.349672	-20.934480	 6.830002	 2.053117	-5.336964	-3.812334	 37.924440	-2.927599	-2.450526	 36.184240	 0.754587	-1.378229	 35.397820	-2.634230	 0.455598	 2.619054	-0.624041	-0.184956	 7.533971	-0.008895	 94.718900	 86.903830	 171.574900	-53.465300	 70.124400	 71.765150	-3.209808	-12.977240	 25.890950	-24.697990	 1.022088	 9.570884	 6.437017	 35.671460	-0.771858	 2.830251	 35.756010	-7.813440	-2.350882	 35.473990	 5.254307
-2.700609	-13.089160	 0.400245	-26.774410	 8.039341	 1.816915	 4.501875	-22.558760	 174.089000	-1.753459	-40.889490	-0.299061	 0.105920	 84.914390	-0.679144	-2.385378	 28.554470	-0.002195	-2.437235	-23.382150	-178.766500	-0.076123	-41.597110	 0.072260	-0.548280	 85.795360	 0.875590	 2.407663	 17.829940	-0.215860	-1.906824	 9.285219	-0.362208	-2.613986	 6.994733	-2.311183	-2.912236	 4.509477	-0.078129	-115.395100	 89.381980	-153.789500	 55.658210	 58.902970	-77.770420	-3.664793	-4.117558	-21.504960	 5.981593	 2.059101	-5.342808	-3.812334	 37.924440	-2.927599	-2.450526	 36.184240	 0.754587	-1.378229	 35.397820	-2.634230	 0.438804	 2.451739	-0.581742	-0.185109	 7.510211	-0.095905	 94.726400	 86.889010	 171.539600	-53.231530	 69.493250	 71.868690	-3.244702	-12.970150	 26.328900	-24.331540	 1.023183	 9.572797	 6.437017	 35.671460	-0.771858	 2.830251	 35.756010	-7.813440	-2.350882	 35.473990	 5.254307
-2.698933	-13.087790	 0.397839	-26.843800	 8.048055	 1.837126	 4.542545	-23.179360	 174.044000	-1.819916	-41.721780	-0.333495	 0.315012	 85.160900	-0.911038	-2.385124	 28.612400	-0.003448	-2.416140	-23.859350	-178.710200	-0.053844	-42.320080	 0.121592	-0.838254	 85.999190	 1.214567	 2.407615	 18.117150	-0.210236	-1.886409	 9.470560	-0.383598	-2.605858	 6.911422	-2.329433	-2.931925	 4.386272	-0.081817	-114.736800	 89.350780	-154.381100	 55.068280	 58.048510	-77.386160	-3.528210	-3.997101	-22.224700	 5.412502	 2.073202	-5.348832	-3.812334	 37.924440	-2.927599	-2.450526	 36.184240	 0.754587	-1.378229	 35.397820	-2.634230	 0.415404	 2.207157	-0.565238	-0.206599	 7.513705	-0.125550	 94.753000	 86.876260	 171.474500	-52.747670	 68.742680	 71.799880	-3.302006	-13.053530	 26.992370	-23.970000	 1.023513	 9.573840	 6.437017	 35.671460	-0.771858	 2.830251	 35.756010	-7.813440	-2.350882	 35.473990	 5.254307
-2.696896	-13.085730	 0.394686	-26.939350	 8.103824	 1.854753	 4.639219	-23.873620	 174.013200	-1.909529	-42.760170	-0.354263	 0.550413	 85.456670	-1.146892	-2.384892	 28.663830	-0.004566	-2.395946	-24.564130	-178.641800	-0.066994	-43.273530	 0.152659	-1.175974	 86.240220	 1.573411	 2.407511	 18.473800	-0.203235	-1.870151	 9.725056	-0.399095	-2.605535	 6.789876	-2.344046	-2.955423	 4.223238	-0.086687	-113.868400	 89.309030	-155.166700	 54.209670	 57.358020	-77.012370	-3.098634	-4.151836	-23.159230	 5.498007	 2.091787	-5.352907	-3.812334	 37.924440	-2.927599	-2.450526	 36.184240	 0.754587	-1.378229	 35.397820	-2.634230	 0.387474	 1.914238	-0.546367	-0.231992	 7.496208	-0.085671	 94.792850	 86.854280	 171.372000	-52.069730	 67.897990	 71.728950	-3.310947	-13.211490	 27.858430	-23.612500	 1.016572	 9.566428	 6.437017	 35.671460	-0.771858	 2.830251	 35.756010	-7.813440	-2.350882	 35.473990	 5.254307
-2.694088	-13.082420	 0.390356	-27.066100	 8.226159	 1.842657	 4.747286	-24.865770	 173.994100	-2.025876	-44.132870	-0.388656	 0.833930	 85.840800	-1.436912	-2.384364	 28.779500	-0.007069	-2.360685	-25.665960	-178.552200	-0.117372	-44.582500	 0.175141	-1.612958	 86.550770	 2.014241	 2.407233	 19.054770	-0.191798	-1.871757	 10.070150	-0.391880	-2.610534	 6.596523	-2.347748	-2.957119	 3.985063	-0.092894	-112.926800	 89.255850	-156.005700	 53.102780	 56.630150	-76.722480	-3.121247	-4.228773	-24.544240	 5.258342	 2.112192	-5.358419	-3.812334	 37.924440	-2.927599	-2.450526	 36.184240	 0.754587	-1.378229	 35.397820	-2.634230	 0.377148	 1.539634	-0.550574	-0.237105	 7.420732	 0.030636	 94.840920	 86.808740	 171.217200	-51.212550	 66.928380	 71.875890	-3.187184	-13.443740	 28.966090	-23.242210	 1.021274	 9.572693	 6.437017	 35.671460	-0.771858	 2.830251	 35.756010	-7.813440	-2.350882	 35.473990	 5.254307
-2.690588	-13.077910	 0.385263	-27.223340	 8.465761	 1.744326	 4.768606	-26.182880	 174.054200	-2.222146	-45.760740	-0.531213	 0.883156	 86.294980	-1.587170	-2.383613	 28.941800	-0.010605	-2.255239	-27.059840	-178.474300	-0.150061	-46.174740	 0.257766	-1.815593	 86.917460	 2.267541	 2.406718	 19.789130	-0.177285	-1.875344	 10.517550	-0.325001	-2.605186	 6.323767	-2.321096	-2.925173	 3.653920	-0.100356	-112.283100	 89.199840	-156.506600	 51.847970	 55.958400	-76.445660	-3.493527	-4.242831	-26.311040	 4.806024	 2.131499	-5.363683	-3.812334	 37.924440	-2.927599	-2.450526	 36.184240	 0.754587	-1.378229	 35.397820	-2.634230	 0.397034	 1.049124	-0.579074	-0.213430	 7.284519	 0.215629	 94.883120	 86.731640	 171.019200	-50.171080	 66.000320	 72.148920	-2.857644	-13.706500	 30.186420	-22.882210	 1.021347	 9.573285	 6.437017	 35.671460	-0.771858	 2.830251	 35.756010	-7.813440	-2.350882	 35.473990	 5.254307
-2.685250	-13.070390	 0.377563	-27.486560	 8.855727	 1.673053	 4.804004	-28.315540	 174.070300	-2.578407	-48.261180	-0.799047	 1.083731	 86.995150	-1.967235	-2.382298	 29.219250	-0.016651	-2.121801	-29.206670	-178.393000	-0.089950	-48.664450	 0.448082	-2.311198	 87.482930	 2.887614	 2.405813	 20.677210	-0.159626	-1.840023	 11.332510	-0.266852	-2.551262	 5.845894	-2.318351	-2.847452	 3.055460	-0.112567	-112.016600	 89.125530	-156.517900	 50.063880	 55.173750	-76.075850	-3.984068	-4.338486	-28.874050	 4.404843	 2.147231	-5.367596	-3.812334	 37.924440	-2.927599	-2.450526	 36.184240	 0.754587	-1.378229	 35.397820	-2.634230	 0.467090	 0.282003	-0.662989	-0.168399	 6.915594	 0.583188	 94.888510	 86.575430	 170.749000	-48.487810	 64.796940	 72.334470	-2.297806	-14.045300	 31.868600	-22.402050	 1.018212	 9.570725	 6.437017	 35.671460	-0.771858	 2.830251	 35.756010	-7.813440	-2.350882	 35.473990	 5.254307
-2.681559	-13.064330	 0.371675	-27.690080	 9.133109	 1.710633	 4.786856	-29.984330	 173.920000	-2.788193	-50.186440	-0.995441	 1.862460	 87.541790	-2.862631	-2.381221	 29.441130	-0.021512	-2.090727	-30.839010	-178.366700	 0.019709	-50.588940	 0.598987	-3.469246	 87.920760	 4.138291	 2.405002	 21.305110	-0.147077	-1.791918	 11.999400	-0.252296	-2.487863	 5.495291	-2.368901	-2.782861	 2.568511	-0.121834	-112.135300	 89.082930	-156.207900	 48.773410	 54.758690	-75.788120	-4.508288	-4.349867	-30.609960	 4.071468	 2.143482	-5.367275	-3.812334	 37.924440	-2.927599	-2.450526	 36.184240	 0.754587	-1.378229	 35.397820	-2.634230	 0.527167	-0.239065	-0.742082	-0.130205	 6.502109	 0.849099	 94.831180	 86.443450	 170.626800	-47.144210	 63.971720	 72.232600	-1.897963	-14.249510	 33.027380	-22.059240	 1.023658	 9.577106	 6.437017	 35.671460	-0.771858	 2.830251	 35.756010	-7.813440	-2.350882	 35.473990	 5.254307
-2.676772	-13.056230	 0.363747	-27.938420	 9.530251	 1.781040	 4.724623	-32.246270	 173.712100	-3.205154	-52.784250	-1.396679	 3.576740	 88.269130	-4.811540	-2.379931	 29.702180	-0.027238	-2.031436	-33.138840	-178.345500	 0.130025	-53.111760	 0.785929	-5.916431	 88.516420	 6.680341	 2.403775	 22.083120	-0.131431	-1.731577	 12.842010	-0.240261	-2.399588	 5.062958	-2.452546	-2.687527	 1.923251	-0.132775	-112.484600	 89.040400	-155.629100	 47.231790	 54.440510	-75.338360	-5.467510	-4.193007	-32.602180	 3.422869	 2.131720	-5.366238	-3.812334	 37.924440	-2.927599	-2.450526	 36.184240	 0.754587	-1.378229	 35.397820	-2.634230	 0.615678	-0.878538	-0.848062	-0.063831	 5.894651	 1.178115	 94.729490	 86.273640	 170.520500	-45.305970	 62.984240	 71.782730	-1.412110	-14.446160	 34.391900	-21.621700	 1.009800	 9.563831	 6.437017	 35.671460	-0.771858	 2.830251	 35.756010	-7.813440	-2.350882	 35.473990	 5.254307
